#!OML:ASF H:\Terrain\Patient Classification 1\Walking\liu\liu.ASF
:FULLY-SPECIFIED
:DEGREES
237
root 9.00326 16.2023 16.7331 9.17771 4.75058 -2.47727
lowerback -3.13072 -4.8396 0.986531
upperback 0.501108 -6.61708 4.78367
thorax 2.72543 -3.33292 4.00588
lowerneck -21.4309 -1.51523 -11.8091
upperneck 15.7408 -0.662639 10.9148
head 8.49046 0.132329 5.62015
rclavicle -2.56432e-014 -2.14687e-014
rhumerus -54.3219 -7.70078 -50.8392
rradius 18.8423
rwrist -0.827509
rhand -33.5214 -29.9027
rfingers 7.12502
rthumb -6.7176 -59.7762
lclavicle -2.56432e-014 -2.14687e-014
lhumerus -4.86076 -31.0801 83.0405
lradius 43.8985
lwrist 8.9219
lhand -20.5007 -32.2701
lfingers 7.12502
lthumb 5.85647 -2.37102
rfemur -44.6229 2.39405 26.5215
rtibia 48.7555
rfoot -12.5139 1.27548
rtoes -14.9265
lfemur 5.14759 10.6526 -12.7081
ltibia 54.8254
lfoot 5.24621 15.3223
ltoes -14.5751
238
root 8.99406 16.2707 16.9756 9.31329 4.66222 -2.74123
lowerback -2.98965 -4.66811 1.04051
upperback 0.355105 -6.38178 4.95664
thorax 2.49409 -3.21533 4.18938
lowerneck -21.294 -1.65834 -11.7998
upperneck 15.8525 -0.839957 10.6992
head 8.52604 0.0219942 5.52051
rclavicle 5.26779e-014 -2.22639e-014
rhumerus -53.7325 -6.75878 -52.777
rradius 19.0466
rwrist -2.42558
rhand -33.6043 -30.2345
rfingers 7.12502
rthumb -6.79762 -60.1053
lclavicle 5.26779e-014 -2.22639e-014
lhumerus -6.02961 -31.0581 84.0839
lradius 43.7785
lwrist 8.08857
lhand -19.7624 -32.3471
lfingers 7.12502
lthumb 6.56916 -2.46894
rfemur -43.3661 2.40448 26.9229
rtibia 48.225
rfoot -12.9691 1.66841
rtoes -11.1014
lfemur 2.49185 11.0124 -12.4613
ltibia 58.3906
lfoot 6.01411 15.877
ltoes -5.70782
239
root 8.98403 16.3381 17.2164 9.59635 4.4123 -2.45035
lowerback -2.85422 -4.45561 0.390445
upperback 0.0991062 -6.06197 5.04744
thorax 2.20938 -3.063 4.68623
lowerneck -21.0011 -1.81169 -12.2161
upperneck 15.9329 -1.00978 10.9364
head 8.52702 -0.0669726 5.65202
rclavicle -2.74323e-014 2.70347e-014
rhumerus -53.1749 -5.68744 -54.6899
rradius 19.3141
rwrist -4.05192
rhand -33.9047 -30.4893
rfingers 7.12502
rthumb -7.08753 -60.3506
lclavicle -2.74323e-014 2.70347e-014
lhumerus -7.36195 -31.1025 85.3431
lradius 43.5461
lwrist 7.32874
lhand -19.4552 -32.4662
lfingers 7.12502
lthumb 6.86575 -2.59752
rfemur -42.4053 2.2846 26.7877
rtibia 47.7132
rfoot -13.5719 2.01968
rtoes -11.5733
lfemur -0.24778 11.4017 -12.9418
ltibia 61.4987
lfoot 3.87757 16.1706
ltoes -7.79731
240
root 8.97812 16.4017 17.4469 9.94166 4.28496 -2.29868
lowerback -3.06797 -4.23593 -0.0216191
upperback 0.145693 -5.76554 5.10723
thorax 2.40043 -2.92286 4.97745
lowerneck -20.7342 -1.97494 -12.6921
upperneck 15.4804 -1.18824 11.3954
head 8.35747 -0.134083 5.85446
rclavicle 3.81667e-014 -5.725e-014
rhumerus -52.0058 -5.45257 -56.4076
rradius 19.3052
rwrist -5.02406
rhand -34.1027 -30.5727
rfingers 7.12502
rthumb -7.27869 -60.4275
lclavicle 3.81667e-014 -5.725e-014
lhumerus -8.14407 -31.1388 86.2748
lradius 43.1809
lwrist 6.82099
lhand -19.4819 -32.5108
lfingers 7.12502
lthumb 6.84001 -2.64128
rfemur -41.5516 1.98006 26.8592
rtibia 47.2101
rfoot -14.536 2.3194
rtoes -15.5396
lfemur -3.16786 11.5795 -13.3742
ltibia 64.2175
lfoot 2.07918 16.1375
ltoes -8.1187
241
root 8.96947 16.4682 17.6675 10.1953 4.27456 -2.26425
lowerback -3.08066 -4.08961 -0.232836
upperback 0.103818 -5.56087 5.09636
thorax 2.36494 -2.82244 5.09821
lowerneck -20.1995 -1.94626 -12.7954
upperneck 15.0464 -1.22553 11.7406
head 8.12759 -0.131482 5.96755
rclavicle 2.38542e-015 1.74931e-014
rhumerus -50.9538 -5.22029 -58.1256
rradius 19.2867
rwrist -4.94017
rhand -33.6742 -30.0424
rfingers 7.12502
rthumb -6.86509 -59.9111
lclavicle 2.38542e-015 1.74931e-014
lhumerus -9.18325 -31.0044 87.1324
lradius 42.7954
lwrist 6.65275
lhand -19.383 -32.2462
lfingers 7.12502
lthumb 6.93543 -2.37983
rfemur -40.6396 1.66968 27.1016
rtibia 46.6811
rfoot -15.2562 2.29113
rtoes -18.5804
lfemur -6.03695 11.4103 -13.7971
ltibia 66.5598
lfoot 0.830379 15.9724
ltoes -6.65003
242
root 8.9556 16.54 17.8963 10.4504 4.11624 -1.50603
lowerback -2.91801 -3.97774 -1.25164
upperback -0.128637 -5.36087 4.89209
thorax 2.08878 -2.727 5.49032
lowerneck -19.8579 -1.95318 -12.7667
upperneck 15.1186 -1.32584 11.9217
head 8.107 -0.168855 6.01242
rclavicle -1.96797e-014 -4.6118e-014
rhumerus -50.1009 -5.06946 -59.3634
rradius 19.0813
rwrist -3.64675
rhand -32.4144 -29.2448
rfingers 7.12502
rthumb -5.64885 -59.1495
lclavicle -1.96797e-014 -4.6118e-014
lhumerus -10.7581 -30.8813 88.1775
lradius 42.467
lwrist 6.91655
lhand -19.3346 -31.9037
lfingers 7.12502
lthumb 6.98213 -2.03888
rfemur -39.6544 1.59215 26.4015
rtibia 46.1141
rfoot -15.8399 2.35981
rtoes -18.0657
lfemur -8.74891 11.2269 -15.0588
ltibia 68.4152
lfoot -2.4857 15.2839
ltoes -14.8392
243
root 8.94562 16.6003 18.1369 10.3991 3.84524 -0.898814
lowerback -2.81732 -3.79098 -2.08849
upperback -0.0376473 -5.08226 4.66207
thorax 2.14845 -2.59764 5.74231
lowerneck -19.8667 -2.13905 -12.6852
upperneck 15.1893 -1.61248 11.9356
head 8.1713 -0.298973 5.97105
rclavicle 7.97127e-014 -5.24792e-014
rhumerus -48.9698 -4.83806 -61.0871
rradius 19.175
rwrist -3.21747
rhand -31.6899 -28.8238
rfingers 7.12502
rthumb -4.94927 -58.746
lclavicle 7.97127e-014 -5.24792e-014
lhumerus -12.1013 -30.6042 89.0584
lradius 42.1675
lwrist 7.30084
lhand -19.252 -31.7236
lfingers 7.12502
lthumb 7.06189 -1.86138
rfemur -38.1919 1.70377 25.763
rtibia 45.5054
rfoot -16.5888 2.66075
rtoes -16.3137
lfemur -10.9254 11.3219 -16.0077
ltibia 69.85
lfoot -4.16657 14.3515
ltoes -16.8795
244
root 8.94265 16.6611 18.3747 10.2012 3.73671 -1.12544
lowerback -2.70327 -3.62118 -1.94413
upperback 0.107244 -4.86151 4.58823
thorax 2.18937 -2.48762 5.59953
lowerneck -19.37 -2.18083 -12.5354
upperneck 14.9235 -1.76837 12.0035
head 8.01731 -0.368469 5.93505
rclavicle -1.82882e-014 2.62396e-014
rhumerus -47.8199 -4.20812 -63.351
rradius 19.5656
rwrist -3.58853
rhand -32.0697 -28.5901
rfingers 7.12502
rthumb -5.31598 -58.5035
lclavicle -1.82882e-014 2.62396e-014
lhumerus -13.5237 -30.0829 89.8295
lradius 41.8573
lwrist 7.50388
lhand -19.5406 -31.4507
lfingers 7.12502
lthumb 6.78334 -1.57935
rfemur -36.5108 1.60788 26.1586
rtibia 44.8238
rfoot -17.2856 2.82534
rtoes -16.7999
lfemur -12.9693 11.2385 -16.0658
ltibia 70.9987
lfoot -4.72328 13.3442
ltoes -17.6454
245
root 8.94681 16.7232 18.6072 10.3155 3.79518 -1.17904
lowerback -2.73034 -3.50664 -1.79314
upperback 0.0290538 -4.70758 4.47021
thorax 2.08344 -2.40392 5.40086
lowerneck -18.9383 -2.20725 -12.1716
upperneck 14.8696 -1.89747 11.7101
head 7.93512 -0.448219 5.74653
rclavicle -3.35946e-014 1.74931e-014
rhumerus -46.8116 -3.31907 -65.6092
rradius 19.992
rwrist -4.07895
rhand -32.7027 -29.0377
rfingers 7.12502
rthumb -5.92722 -58.9348
lclavicle -3.35946e-014 1.74931e-014
lhumerus -15.1423 -29.9433 90.6561
lradius 41.5131
lwrist 8.2219
lhand -20.3158 -30.9858
lfingers 7.12502
lthumb 6.03497 -1.09171
rfemur -35.1884 1.23533 26.3677
rtibia 44.0679
rfoot -17.6629 3.03382
rtoes -16.1989
lfemur -15.3666 10.6641 -16.5762
ltibia 71.8472
lfoot -5.16902 12.6148
ltoes -18.1079
246
root 8.95036 16.7767 18.8369 10.4789 3.63768 -0.915234
lowerback -2.88436 -3.26755 -1.98602
upperback 0.145369 -4.38077 4.27956
thorax 2.25339 -2.24515 5.317
lowerneck -19.4467 -2.44115 -11.9542
upperneck 15.2059 -2.18603 11.4036
head 8.16782 -0.591032 5.58188
rclavicle -2.78299e-015 7.95139e-016
rhumerus -45.4766 -2.1655 -68.1192
rradius 20.5533
rwrist -5.27493
rhand -33.2533 -29.923
rfingers 7.12502
rthumb -6.45879 -59.8046
lclavicle -2.78299e-015 7.95139e-016
lhumerus -16.2119 -30.0926 91.281
lradius 41.0739
lwrist 9.30794
lhand -20.8071 -30.4747
lfingers 7.12502
lthumb 5.56055 -0.567659
rfemur -33.961 1.21022 26.1176
rtibia 43.2267
rfoot -17.7487 3.36729
rtoes -13.3686
lfemur -17.6836 10.1895 -17.4882
ltibia 72.4575
lfoot -5.9174 11.9245
ltoes -15.1486
247
root 8.94838 16.8287 19.0727 10.5956 3.2953 -0.735344
lowerback -3.03145 -2.97495 -2.272
upperback 0.181575 -3.97842 4.19556
thorax 2.34294 -2.04855 5.40717
lowerneck -19.4183 -2.57743 -12.2498
upperneck 15.3812 -2.34694 11.6191
head 8.24868 -0.665489 5.69357
rclavicle -5.94366e-014 1.59028e-014
rhumerus -44.1844 -0.959663 -70.2111
rradius 20.8717
rwrist -6.25647
rhand -33.565 -29.3147
rfingers 7.12502
rthumb -6.75962 -59.1868
lclavicle -5.94366e-014 1.59028e-014
lhumerus -17.5538 -29.7868 92.1539
lradius 40.5896
lwrist 9.97514
lhand -20.8388 -29.7593
lfingers 7.12502
lthumb 5.52999 0.148561
rfemur -32.6298 1.63908 25.8973
rtibia 42.384
rfoot -18.1831 3.35034
rtoes -12.9741
lfemur -19.9165 10.0213 -18.1796
ltibia 72.8853
lfoot -7.20953 11.3383
ltoes -13.3924
248
root 8.93238 16.8686 19.3152 10.6004 3.0057 -1.11262
lowerback -3.15517 -2.71177 -2.22922
upperback 0.121296 -3.6301 4.35609
thorax 2.31893 -1.87342 5.56926
lowerneck -18.8092 -2.53649 -12.3417
upperneck 15.4446 -2.32 11.5203
head 8.15873 -0.684697 5.67324
rclavicle 5.9039e-014 -2.62396e-014
rhumerus -42.9597 0.0748462 -71.8012
rradius 20.9423
rwrist -6.46832
rhand -33.8626 -27.5128
rfingers 7.12502
rthumb -7.04695 -57.3755
lclavicle 5.9039e-014 -2.62396e-014
lhumerus -19.2987 -28.9614 93.2233
lradius 40.0904
lwrist 10.2065
lhand -20.9191 -29.0685
lfingers 7.12502
lthumb 5.45241 0.841355
rfemur -31.2 2.4181 26.35
rtibia 41.5608
rfoot -18.9077 2.61322
rtoes -15.0878
lfemur -22.1178 10.1933 -18.0383
ltibia 73.1689
lfoot -8.88859 10.7791
ltoes -15.5982
249
root 8.91277 16.8927 19.5465 10.5008 2.8701 -1.61676
lowerback -3.27153 -2.51338 -2.05418
upperback 0.339277 -3.38032 4.47869
thorax 2.57845 -1.75582 5.60488
lowerneck -18.9541 -2.45621 -11.9927
upperneck 15.6768 -2.24699 11.226
head 8.24406 -0.655715 5.52729
rclavicle -2.78299e-014 -1.27222e-014
rhumerus -41.3362 1.28111 -73.7749
rradius 21.304
rwrist -6.68853
rhand -34.0547 -27.0471
rfingers 7.12502
rthumb -7.23239 -56.9035
lclavicle -2.78299e-014 -1.27222e-014
lhumerus -20.4344 -27.8903 93.6886
lradius 39.564
lwrist 10.4164
lhand -20.8787 -28.6018
lfingers 7.12502
lthumb 5.49151 1.30703
rfemur -29.7847 3.19948 27.0205
rtibia 40.7417
rfoot -19.313 1.83567
rtoes -15.8465
lfemur -24.248 10.3461 -17.7233
ltibia 73.2267
lfoot -10.0554 10.2187
ltoes -17.1436
250
root 8.92689 16.9344 19.7745 10.4455 2.81361 -1.36628
lowerback -3.23131 -2.39667 -2.12316
upperback 0.455784 -3.21786 4.23635
thorax 2.64682 -1.67606 5.39899
lowerneck -18.9881 -2.41137 -11.8173
upperneck 15.7726 -2.24942 11.2867
head 8.28104 -0.639665 5.52209
rclavicle -1.92821e-014 -8.74653e-015
rhumerus -40.0166 3.10392 -76.2029
rradius 21.8627
rwrist -7.45615
rhand -34.2729 -26.7092
rfingers 7.12502
rthumb -7.44296 -56.5583
lclavicle -1.92821e-014 -8.74653e-015
lhumerus -21.7002 -26.9495 93.9878
lradius 39.0794
lwrist 11.0534
lhand -20.4625 -28.1911
lfingers 7.12502
lthumb 5.8933 1.70696
rfemur -28.3344 3.16223 26.8241
rtibia 39.9295
rfoot -19.5402 1.89348
rtoes -15.4143
lfemur -26.0937 9.89784 -18.5124
ltibia 72.7565
lfoot -10.8131 10.1695
ltoes -17.1374
251
root 8.9591 16.9877 20.008 10.2624 2.44103 -1.02789
lowerback -3.00519 -2.12642 -2.06794
upperback 0.527449 -2.85171 3.91789
thorax 2.53264 -1.4875 5.06325
lowerneck -18.6136 -2.51963 -11.9125
upperneck 15.5556 -2.42469 11.4118
head 8.16833 -0.724546 5.55052
rclavicle -8.15017e-015 -8.74653e-015
rhumerus -38.8958 5.35532 -78.6956
rradius 22.3387
rwrist -8.7868
rhand -35.4276 -25.6378
rfingers 7.12502
rthumb -8.55741 -55.4444
lclavicle -8.15017e-015 -8.74653e-015
lhumerus -23.2639 -26.4888 94.5025
lradius 38.6158
lwrist 11.911
lhand -20.4065 -27.9981
lfingers 7.12502
lthumb 5.94739 1.89844
rfemur -26.7172 2.62917 26.4961
rtibia 39.1567
rfoot -20.0183 2.43502
rtoes -16.7816
lfemur -27.4546 9.49935 -19.4971
ltibia 71.8557
lfoot -11.7106 10.5497
ltoes -16.8164
